<svg width="512" height="512" viewBox="0 0 512 512" fill="none" xmlns="http://www.w3.org/2000/svg">
<g clip-path="url(#clip0_1_2)">
<g filter="url(#filter0_d_1_2)">
<path d="M121.804 230.792C121.804 239.179 119.633 246.875 115.292 253.88C110.951 260.885 104.636 266.608 96.348 271.048C88.06 275.488 78.1933 278.103 66.748 278.892L60.384 314.56C57.9173 328.275 51.208 335.132 40.256 335.132C34.2373 335.132 28.6627 333.356 23.532 329.804C18.5 326.252 14.4547 320.825 11.396 313.524C8.33733 306.223 6.808 297.244 6.808 286.588C6.808 266.559 10.0147 249.588 16.428 235.676C22.94 221.665 31.6227 211.207 42.476 204.3C53.428 197.295 65.4653 193.792 78.588 193.792C87.8627 193.792 95.7067 195.42 102.12 198.676C108.632 201.932 113.516 206.372 116.772 211.996C120.127 217.521 121.804 223.787 121.804 230.792ZM69.412 263.648C89.6387 261.083 99.752 250.575 99.752 232.124C99.752 225.612 97.5813 220.333 93.24 216.288C88.9973 212.144 82.3867 210.072 73.408 210.072C63.2453 210.072 54.3653 213.279 46.768 219.692C39.2693 226.105 33.448 235.035 29.304 246.48C25.2587 257.827 23.236 270.801 23.236 285.404C23.236 291.521 23.828 296.948 25.012 301.684C26.2947 306.42 27.8733 310.12 29.748 312.784C31.7213 315.349 33.596 316.632 35.372 316.632C37.8387 316.632 39.7133 313.228 40.996 306.42L45.88 278.448C42.032 277.856 40.3547 277.609 40.848 277.708C37.888 277.215 35.964 276.327 35.076 275.044C34.188 273.663 33.744 271.936 33.744 269.864C33.744 267.693 34.336 265.967 35.52 264.684C36.8027 263.401 38.5293 262.76 40.7 262.76C41.6867 262.76 42.4267 262.809 42.92 262.908C45.288 263.303 47.1133 263.549 48.396 263.648C49.6787 255.952 51.504 245.641 53.872 232.716C54.464 229.361 55.796 226.993 57.868 225.612C60.0387 224.132 62.5547 223.392 65.416 223.392C68.672 223.392 70.9907 224.033 72.372 225.316C73.852 226.5 74.592 228.424 74.592 231.088C74.592 232.667 74.4933 233.949 74.296 234.936L69.412 263.648ZM131.828 319.74C125.71 319.74 120.826 317.52 117.176 313.08C113.525 308.64 111.7 302.819 111.7 295.616C111.7 287.723 113.525 280.273 117.176 273.268C120.826 266.164 125.661 260.491 131.68 256.248C137.797 251.907 144.26 249.736 151.068 249.736C153.238 249.736 154.669 250.18 155.36 251.068C156.149 251.857 156.79 253.337 157.284 255.508C159.356 255.113 161.526 254.916 163.796 254.916C168.63 254.916 171.048 256.643 171.048 260.096C171.048 262.168 170.308 267.101 168.828 274.896C166.558 286.243 165.424 294.136 165.424 298.576C165.424 300.056 165.769 301.24 166.46 302.128C167.249 303.016 168.236 303.46 169.42 303.46C171.294 303.46 173.564 302.276 176.228 299.908C178.892 297.441 182.493 293.495 187.032 288.068C188.216 286.687 189.548 285.996 191.028 285.996C192.31 285.996 193.297 286.588 193.988 287.772C194.777 288.956 195.172 290.584 195.172 292.656C195.172 296.603 194.234 299.661 192.36 301.832C188.314 306.864 184.022 311.107 179.484 314.56C174.945 318.013 170.554 319.74 166.312 319.74C163.056 319.74 160.046 318.655 157.284 316.484C154.62 314.215 152.597 311.156 151.216 307.308C146.085 315.596 139.622 319.74 131.828 319.74ZM137.156 304.792C139.326 304.792 141.398 303.509 143.372 300.944C145.345 298.379 146.776 294.975 147.664 290.732L153.14 263.5C148.996 263.599 145.148 265.177 141.596 268.236C138.142 271.196 135.38 275.143 133.308 280.076C131.236 285.009 130.2 290.239 130.2 295.764C130.2 298.823 130.792 301.092 131.976 302.572C133.258 304.052 134.985 304.792 137.156 304.792ZM294.996 274.008C295.292 273.909 295.786 273.86 296.476 273.86C297.956 273.86 299.091 274.353 299.88 275.34C300.67 276.327 301.064 277.659 301.064 279.336C301.064 282.395 300.472 284.812 299.288 286.588C298.104 288.265 296.328 289.499 293.96 290.288C289.422 291.768 284.587 292.508 279.456 292.508C275.115 292.508 271.02 291.916 267.172 290.732C264.311 295.369 261.154 300.155 257.7 305.088C253.754 310.712 250.35 314.56 247.488 316.632C244.726 318.704 241.568 319.74 238.016 319.74C234.07 319.74 231.06 318.211 228.988 315.152C227.015 312.093 225.782 307.061 225.288 300.056L224.548 289.252C221.49 297.54 218.727 303.855 216.26 308.196C213.892 312.537 211.475 315.547 209.008 317.224C206.64 318.901 203.828 319.74 200.572 319.74C196.527 319.74 193.32 318.161 190.952 315.004C188.683 311.847 187.252 306.864 186.66 300.056C185.476 286.243 184.884 274.156 184.884 263.796V258.616C184.983 255.36 185.871 253.091 187.548 251.808C189.226 250.525 191.742 249.884 195.096 249.884C197.662 249.884 199.536 250.476 200.72 251.66C202.003 252.745 202.644 254.62 202.644 257.284C202.644 268.631 203.335 283.381 204.716 301.536C211.426 287.427 217.592 272.725 223.216 257.432C224.302 254.472 225.584 252.499 227.064 251.512C228.643 250.427 230.518 249.884 232.688 249.884C235.352 249.884 237.178 250.427 238.164 251.512C239.25 252.597 239.792 254.521 239.792 257.284C239.792 268.631 240.483 283.381 241.864 301.536C247.784 292.755 252.224 285.749 255.184 280.52C253.704 277.659 252.964 274.255 252.964 270.308C252.964 266.953 253.704 263.697 255.184 260.54C256.664 257.383 258.687 254.817 261.252 252.844C263.818 250.871 266.728 249.884 269.984 249.884C272.846 249.884 275.164 250.92 276.94 252.992C278.716 254.965 279.604 257.876 279.604 261.724C279.604 266.164 278.42 271.245 276.052 276.968C279.802 276.771 284.784 276.031 291 274.748L294.996 274.008ZM366.953 273.564C368.236 273.564 369.223 274.205 369.913 275.488C370.604 276.771 370.949 278.399 370.949 280.372C370.949 282.839 370.604 284.763 369.913 286.144C369.223 287.427 368.137 288.315 366.657 288.808C360.737 290.88 354.225 292.064 347.121 292.36C345.148 300.549 341.399 307.16 335.873 312.192C330.447 317.224 324.428 319.74 317.817 319.74C307.852 319.74 300.6 315.941 296.061 308.344C291.523 300.747 289.253 289.745 289.253 275.34C289.253 262.612 290.832 248.799 293.989 233.9C297.147 218.903 301.735 206.175 307.753 195.716C313.871 185.159 321.123 179.88 329.509 179.88C334.048 179.88 337.699 181.853 340.461 185.8C343.224 189.648 344.605 194.68 344.605 200.896C344.605 208.987 343.076 217.028 340.017 225.02C336.959 233.012 331.877 241.399 324.773 250.18C331.384 250.673 336.761 253.436 340.905 258.468C345.049 263.401 347.516 269.519 348.305 276.82C352.943 276.524 358.468 275.537 364.881 273.86C365.473 273.663 366.164 273.564 366.953 273.564ZM326.105 194.532C324.132 194.532 321.961 197.492 319.593 203.412C317.324 209.233 315.203 217.176 313.229 227.24C311.256 237.304 309.776 248.305 308.789 260.244C315.301 248.305 320.481 237.797 324.329 228.72C328.276 219.544 330.249 211.404 330.249 204.3C330.249 201.143 329.855 198.725 329.065 197.048C328.375 195.371 327.388 194.532 326.105 194.532ZM318.409 304.052C321.468 304.052 324.181 302.769 326.549 300.204C328.917 297.639 330.496 293.939 331.285 289.104C328.227 287.032 325.859 284.319 324.181 280.964C322.603 277.609 321.813 274.057 321.813 270.308C321.813 268.927 322.011 267.052 322.405 264.684H321.961C317.916 264.684 314.512 266.707 311.749 270.752C309.085 274.699 307.753 280.027 307.753 286.736C307.753 292.36 308.789 296.652 310.861 299.612C313.032 302.572 315.548 304.052 318.409 304.052ZM377.558 240.264C373.414 240.264 370.306 239.327 368.234 237.452C366.162 235.479 365.126 232.765 365.126 229.312C365.126 225.859 366.458 222.997 369.122 220.728C371.885 218.36 375.289 217.176 379.334 217.176C382.985 217.176 385.945 218.064 388.214 219.84C390.484 221.616 391.618 224.132 391.618 227.388C391.618 231.335 390.336 234.492 387.77 236.86C385.205 239.129 381.801 240.264 377.558 240.264ZM376.374 319.74C369.961 319.74 365.274 317.471 362.314 312.932C359.453 308.393 358.022 302.375 358.022 294.876C358.022 290.436 358.565 284.763 359.65 277.856C360.834 270.851 362.314 264.339 364.09 258.32C364.978 255.163 366.162 252.992 367.642 251.808C369.122 250.624 371.49 250.032 374.746 250.032C379.778 250.032 382.294 251.709 382.294 255.064C382.294 257.531 381.357 263.253 379.482 272.232C377.114 283.085 375.93 290.436 375.93 294.284C375.93 297.244 376.325 299.513 377.114 301.092C377.904 302.671 379.236 303.46 381.11 303.46C382.886 303.46 385.106 302.227 387.77 299.76C390.434 297.293 393.986 293.396 398.426 288.068C399.61 286.687 400.942 285.996 402.422 285.996C403.705 285.996 404.692 286.588 405.382 287.772C406.172 288.956 406.566 290.584 406.566 292.656C406.566 296.603 405.629 299.661 403.754 301.832C393.986 313.771 384.86 319.74 376.374 319.74ZM460.6 285.996C461.883 285.996 462.87 286.588 463.56 287.772C464.35 288.956 464.744 290.584 464.744 292.656C464.744 296.603 463.807 299.661 461.932 301.832C458.282 306.272 453.102 310.367 446.392 314.116C439.782 317.865 432.678 319.74 425.08 319.74C414.72 319.74 406.679 316.928 400.956 311.304C395.234 305.68 392.372 297.984 392.372 288.216C392.372 281.408 393.803 275.093 396.664 269.272C399.526 263.352 403.472 258.665 408.504 255.212C413.635 251.759 419.407 250.032 425.82 250.032C431.543 250.032 436.131 251.759 439.584 255.212C443.038 258.567 444.764 263.155 444.764 268.976C444.764 275.784 442.298 281.655 437.364 286.588C432.53 291.423 424.291 295.271 412.648 298.132C415.115 302.671 419.802 304.94 426.708 304.94C431.148 304.94 436.18 303.411 441.804 300.352C447.527 297.195 452.46 293.1 456.604 288.068C457.788 286.687 459.12 285.996 460.6 285.996ZM423.304 264.536C419.654 264.536 416.546 266.657 413.98 270.9C411.514 275.143 410.28 280.273 410.28 286.292V286.588C416.102 285.207 420.69 283.135 424.044 280.372C427.399 277.609 429.076 274.403 429.076 270.752C429.076 268.877 428.534 267.397 427.448 266.312C426.462 265.128 425.08 264.536 423.304 264.536ZM480.222 322.996C475.091 322.996 471.145 321.812 468.382 319.444C465.718 317.076 464.386 314.412 464.386 311.452C464.386 308.887 465.323 306.667 467.198 304.792C469.073 302.917 471.835 301.98 475.486 301.98C476.769 301.98 478.249 302.128 479.926 302.424C481.702 302.621 483.034 302.769 483.922 302.868C483.823 300.303 483.231 297.885 482.146 295.616C481.159 293.347 479.877 291.176 478.298 289.104C476.719 286.933 475.239 285.059 473.858 283.48C470.799 289.301 467.741 294.136 464.682 297.984C461.722 301.832 458.466 305.483 454.914 308.936C453.138 310.712 451.263 311.6 449.29 311.6C447.711 311.6 446.429 311.057 445.442 309.972C444.455 308.788 443.962 307.357 443.962 305.68C443.962 303.707 444.653 301.881 446.034 300.204L447.958 297.836C453.385 291.127 457.479 285.601 460.242 281.26C462.018 278.399 463.794 274.995 465.57 271.048C467.445 267.101 469.862 261.724 472.822 254.916C474.697 250.575 478.594 248.404 484.514 248.404C487.277 248.404 489.201 248.651 490.286 249.144C491.371 249.637 491.914 250.427 491.914 251.512C491.914 252.104 491.717 253.041 491.322 254.324C490.927 255.607 490.385 256.889 489.694 258.172C487.918 261.724 487.03 264.733 487.03 267.2C487.03 268.68 487.523 270.308 488.51 272.084C489.595 273.86 491.223 276.08 493.394 278.744C496.551 282.888 498.919 286.44 500.498 289.4C502.175 292.261 503.014 295.419 503.014 298.872C503.014 303.016 502.027 306.963 500.054 310.712C498.179 314.363 495.515 317.323 492.062 319.592C488.609 321.861 484.662 322.996 480.222 322.996Z" fill="#D5C3FA"/>
</g>
</g>
<defs>
<filter id="filter0_d_1_2" x="6.808" y="179.88" width="506.206" height="167.252" filterUnits="userSpaceOnUse" color-interpolation-filters="sRGB">
<feFlood flood-opacity="0" result="BackgroundImageFix"/>
<feColorMatrix in="SourceAlpha" type="matrix" values="0 0 0 0 0 0 0 0 0 0 0 0 0 0 0 0 0 0 127 0" result="hardAlpha"/>
<feOffset dx="6" dy="8"/>
<feGaussianBlur stdDeviation="2"/>
<feComposite in2="hardAlpha" operator="out"/>
<feColorMatrix type="matrix" values="0 0 0 0 0 0 0 0 0 0 0 0 0 0 0 0 0 0 0.25 0"/>
<feBlend mode="normal" in2="BackgroundImageFix" result="effect1_dropShadow_1_2"/>
<feBlend mode="normal" in="SourceGraphic" in2="effect1_dropShadow_1_2" result="shape"/>
</filter>
<clipPath id="clip0_1_2">
<rect width="512" height="512" fill="white"/>
</clipPath>
</defs>
</svg>
